# xmcd
#
# Track frame offsets:
#	150
#	15995
#	33278
#	49123
#	63403
#	84013
#	100838
#	115935
#	132730
#	150970
#	162915
#
# Disc length: 2376 seconds
#
# Revision: 2
# Processed by: cddbd v1.4PL0 Copyright (c) Steve Scherf et al.
# Submitted via: CDmax 1.9
#
DISCID=7a09460b
DTITLE=Paul Overstreet - Heroes
DYEAR=1991
DGENRE=Country
TTITLE0=Ball and Chain
TTITLE1=If I Could Bottle This Up
TTITLE2=Daddy's Come Around
TTITLE3=Love Lives On
TTITLE4=Heroes
TTITLE5=I'm So Glad I was Dreaming
TTITLE6=Straight and Narrow
TTITLE7=Billy Can't Read
TTITLE8=She Supports Her Man
TTITLE9='Til the Mountains Disappear
TTITLE10=The Calm at the Center of My Storm
EXTD=
EXTT0=
EXTT1=
EXTT2=
EXTT3=
EXTT4=
EXTT5=
EXTT6=
EXTT7=
EXTT8=
EXTT9=
EXTT10=
PLAYORDER=
